<mxfile host="app.diagrams.net" agent="Mozilla/5.0 (Windows NT 10.0; Win64; x64) AppleWebKit/537.36 (KHTML, like Gecko) Chrome/129.0.0.0 Safari/537.36" version="24.7.17">
  <diagram name="Page-1" id="2YBvvXClWsGukQMizWep">
    <mxGraphModel dx="2040" dy="686" grid="1" gridSize="10" guides="1" tooltips="1" connect="1" arrows="1" fold="1" page="1" pageScale="1" pageWidth="850" pageHeight="1100" math="0" shadow="0">
      <root>
        <mxCell id="0" />
        <mxCell id="1" parent="0" />
        <mxCell id="ep7vOEKuy8bBKtfqTCqH-5" style="edgeStyle=elbowEdgeStyle;rounded=0;orthogonalLoop=1;jettySize=auto;html=1;elbow=vertical;curved=0;" edge="1" parent="1">
          <mxGeometry relative="1" as="geometry">
            <mxPoint x="-375" y="130" as="sourcePoint" />
            <mxPoint x="-175" y="130" as="targetPoint" />
            <Array as="points">
              <mxPoint x="-300" y="130" />
              <mxPoint x="-260" y="120" />
            </Array>
          </mxGeometry>
        </mxCell>
        <mxCell id="ep7vOEKuy8bBKtfqTCqH-6" value="1.1: Lấy danh sách cư dân()" style="edgeLabel;html=1;align=center;verticalAlign=middle;resizable=0;points=[];" vertex="1" connectable="0" parent="ep7vOEKuy8bBKtfqTCqH-5">
          <mxGeometry x="0.0893" y="-1" relative="1" as="geometry">
            <mxPoint x="-4" y="-11" as="offset" />
          </mxGeometry>
        </mxCell>
        <mxCell id="ep7vOEKuy8bBKtfqTCqH-9" style="edgeStyle=elbowEdgeStyle;rounded=0;orthogonalLoop=1;jettySize=auto;html=1;elbow=vertical;curved=0;" edge="1" parent="1">
          <mxGeometry relative="1" as="geometry">
            <mxPoint x="-165" y="140.0044827586207" as="sourcePoint" />
            <mxPoint x="45" y="140.0044827586207" as="targetPoint" />
          </mxGeometry>
        </mxCell>
        <mxCell id="ep7vOEKuy8bBKtfqTCqH-10" value="1.2: Truy vấn thông tin cư dân()" style="edgeLabel;html=1;align=center;verticalAlign=middle;resizable=0;points=[];" vertex="1" connectable="0" parent="ep7vOEKuy8bBKtfqTCqH-9">
          <mxGeometry x="-0.3592" y="3" relative="1" as="geometry">
            <mxPoint x="38" y="-7" as="offset" />
          </mxGeometry>
        </mxCell>
        <mxCell id="ep7vOEKuy8bBKtfqTCqH-11" value="&lt;font style=&quot;font-size: 10px;&quot;&gt;sd addFace&lt;/font&gt;" style="shape=umlFrame;whiteSpace=wrap;html=1;pointerEvents=0;width=140;height=20;" vertex="1" parent="1">
          <mxGeometry x="-740" y="10" width="900" height="570" as="geometry" />
        </mxCell>
        <mxCell id="ep7vOEKuy8bBKtfqTCqH-23" value="[Chọn cư dân]" style="html=1;verticalAlign=bottom;startArrow=oval;endArrow=block;startSize=8;edgeStyle=elbowEdgeStyle;elbow=vertical;curved=0;rounded=0;" edge="1" parent="1">
          <mxGeometry x="-0.1637" y="11" relative="1" as="geometry">
            <mxPoint x="-625" y="260.12" as="sourcePoint" />
            <mxPoint x="-565" y="260.12" as="targetPoint" />
            <mxPoint as="offset" />
          </mxGeometry>
        </mxCell>
        <mxCell id="ep7vOEKuy8bBKtfqTCqH-24" value="" style="html=1;points=[];perimeter=orthogonalPerimeter;outlineConnect=0;targetShapes=umlLifeline;portConstraint=eastwest;newEdgeStyle={&quot;edgeStyle&quot;:&quot;elbowEdgeStyle&quot;,&quot;elbow&quot;:&quot;vertical&quot;,&quot;curved&quot;:0,&quot;rounded&quot;:0};" vertex="1" parent="1">
          <mxGeometry x="-565" y="260" width="10" height="100" as="geometry" />
        </mxCell>
        <mxCell id="ep7vOEKuy8bBKtfqTCqH-27" value="&lt;span style=&quot;color: rgba(0, 0, 0, 0); font-family: monospace; font-size: 0px; text-align: start;&quot;&gt;%3CmxGraphModel%3E%3Croot%3E%3CmxCell%20id%3D%220%22%2F%3E%3CmxCell%20id%3D%221%22%20parent%3D%220%22%2F%3E%3CmxCell%20id%3D%222%22%20value%3D%22%22%20style%3D%22shape%3DumlLifeline%3Bperimeter%3DlifelinePerimeter%3BwhiteSpace%3Dwrap%3Bhtml%3D1%3Bcontainer%3D1%3BdropTarget%3D0%3Bcollapsible%3D0%3BrecursiveResize%3D0%3BoutlineConnect%3D0%3BportConstraint%3Deastwest%3BnewEdgeStyle%3D%7B%26quot%3Bcurved%26quot%3B%3A0%2C%26quot%3Brounded%26quot%3B%3A0%7D%3Bparticipant%3DumlActor%3B%22%20vertex%3D%221%22%20parent%3D%221%22%3E%3CmxGeometry%20x%3D%22-570%22%20y%3D%2240%22%20width%3D%2220%22%20height%3D%22520%22%20as%3D%22geometry%22%2F%3E%3C%2FmxCell%3E%3C%2Froot%3E%3C%2FmxGraphModel%3E&lt;/span&gt;&lt;span style=&quot;color: rgba(0, 0, 0, 0); font-family: monospace; font-size: 0px; text-align: start;&quot;&gt;%3CmxGraphModel%3E%3Croot%3E%3CmxCell%20id%3D%220%22%2F%3E%3CmxCell%20id%3D%221%22%20parent%3D%220%22%2F%3E%3CmxCell%20id%3D%222%22%20value%3D%22%22%20style%3D%22shape%3DumlLifeline%3Bperimeter%3DlifelinePerimeter%3BwhiteSpace%3Dwrap%3Bhtml%3D1%3Bcontainer%3D1%3BdropTarget%3D0%3Bcollapsible%3D0%3BrecursiveResize%3D0%3BoutlineConnect%3D0%3BportConstraint%3Deastwest%3BnewEdgeStyle%3D%7B%26quot%3Bcurved%26quot%3B%3A0%2C%26quot%3Brounded%26quot%3B%3A0%7D%3Bparticipant%3DumlActor%3B%22%20vertex%3D%221%22%20parent%3D%221%22%3E%3CmxGeometry%20x%3D%22-570%22%20y%3D%2240%22%20width%3D%2220%22%20height%3D%22520%22%20as%3D%22geometry%22%2F%3E%3C%2FmxCell%3E%3C%2Froot%3E%3C%2FmxGraphModel%3E&lt;/span&gt;" style="html=1;points=[];perimeter=orthogonalPerimeter;outlineConnect=0;targetShapes=umlLifeline;portConstraint=eastwest;newEdgeStyle={&quot;edgeStyle&quot;:&quot;elbowEdgeStyle&quot;,&quot;elbow&quot;:&quot;vertical&quot;,&quot;curved&quot;:0,&quot;rounded&quot;:0};" vertex="1" parent="1">
          <mxGeometry x="-385" y="270" width="10" height="90" as="geometry" />
        </mxCell>
        <mxCell id="ep7vOEKuy8bBKtfqTCqH-28" value="2: Chọn cư dân()" style="html=1;verticalAlign=bottom;endArrow=block;edgeStyle=elbowEdgeStyle;elbow=vertical;curved=0;rounded=0;" edge="1" parent="1">
          <mxGeometry relative="1" as="geometry">
            <mxPoint x="-555" y="270" as="sourcePoint" />
            <Array as="points">
              <mxPoint x="-470" y="270" />
            </Array>
            <mxPoint x="-385" y="270" as="targetPoint" />
          </mxGeometry>
        </mxCell>
        <mxCell id="ep7vOEKuy8bBKtfqTCqH-35" value="" style="html=1;points=[];perimeter=orthogonalPerimeter;outlineConnect=0;targetShapes=umlLifeline;portConstraint=eastwest;newEdgeStyle={&quot;edgeStyle&quot;:&quot;elbowEdgeStyle&quot;,&quot;elbow&quot;:&quot;vertical&quot;,&quot;curved&quot;:0,&quot;rounded&quot;:0};" vertex="1" parent="1">
          <mxGeometry x="-565" y="410" width="10" height="100" as="geometry" />
        </mxCell>
        <mxCell id="ep7vOEKuy8bBKtfqTCqH-36" value="[Lấy dữ liệu hình ảnh]" style="html=1;verticalAlign=bottom;startArrow=oval;endArrow=block;startSize=8;edgeStyle=elbowEdgeStyle;elbow=vertical;curved=0;rounded=0;" edge="1" parent="1">
          <mxGeometry x="-0.9854" y="10" relative="1" as="geometry">
            <mxPoint x="-625" y="410" as="sourcePoint" />
            <mxPoint x="-565" y="410" as="targetPoint" />
            <mxPoint as="offset" />
          </mxGeometry>
        </mxCell>
        <mxCell id="ep7vOEKuy8bBKtfqTCqH-37" value="3: Hình ảnh qua camera()" style="html=1;verticalAlign=bottom;endArrow=block;edgeStyle=elbowEdgeStyle;elbow=horizontal;curved=0;rounded=0;" edge="1" parent="1">
          <mxGeometry relative="1" as="geometry">
            <mxPoint x="-555" y="420" as="sourcePoint" />
            <Array as="points">
              <mxPoint x="-470" y="420" />
            </Array>
            <mxPoint x="-385" y="420" as="targetPoint" />
          </mxGeometry>
        </mxCell>
        <mxCell id="ep7vOEKuy8bBKtfqTCqH-38" value="" style="html=1;points=[];perimeter=orthogonalPerimeter;outlineConnect=0;targetShapes=umlLifeline;portConstraint=eastwest;newEdgeStyle={&quot;edgeStyle&quot;:&quot;elbowEdgeStyle&quot;,&quot;elbow&quot;:&quot;vertical&quot;,&quot;curved&quot;:0,&quot;rounded&quot;:0};" vertex="1" parent="1">
          <mxGeometry x="-385" y="420" width="10" height="90" as="geometry" />
        </mxCell>
        <mxCell id="ep7vOEKuy8bBKtfqTCqH-39" value="" style="html=1;points=[];perimeter=orthogonalPerimeter;outlineConnect=0;targetShapes=umlLifeline;portConstraint=eastwest;newEdgeStyle={&quot;edgeStyle&quot;:&quot;elbowEdgeStyle&quot;,&quot;elbow&quot;:&quot;vertical&quot;,&quot;curved&quot;:0,&quot;rounded&quot;:0};" vertex="1" parent="1">
          <mxGeometry x="-175" y="430" width="10" height="80" as="geometry" />
        </mxCell>
        <mxCell id="ep7vOEKuy8bBKtfqTCqH-40" style="edgeStyle=elbowEdgeStyle;rounded=0;orthogonalLoop=1;jettySize=auto;html=1;elbow=vertical;curved=0;" edge="1" parent="1">
          <mxGeometry relative="1" as="geometry">
            <mxPoint x="-375" y="430" as="sourcePoint" />
            <mxPoint x="-175" y="430" as="targetPoint" />
            <Array as="points">
              <mxPoint x="-300" y="430" />
              <mxPoint x="-260" y="420" />
            </Array>
          </mxGeometry>
        </mxCell>
        <mxCell id="ep7vOEKuy8bBKtfqTCqH-41" value="3.1: Xử lý hình ảnh()" style="edgeLabel;html=1;align=center;verticalAlign=middle;resizable=0;points=[];" vertex="1" connectable="0" parent="ep7vOEKuy8bBKtfqTCqH-40">
          <mxGeometry x="0.0893" y="-1" relative="1" as="geometry">
            <mxPoint x="-4" y="-11" as="offset" />
          </mxGeometry>
        </mxCell>
        <mxCell id="ep7vOEKuy8bBKtfqTCqH-42" style="edgeStyle=elbowEdgeStyle;rounded=0;orthogonalLoop=1;jettySize=auto;html=1;elbow=vertical;curved=0;" edge="1" parent="1">
          <mxGeometry relative="1" as="geometry">
            <mxPoint x="-165" y="440.0044827586207" as="sourcePoint" />
            <mxPoint x="45" y="440.0044827586207" as="targetPoint" />
          </mxGeometry>
        </mxCell>
        <mxCell id="ep7vOEKuy8bBKtfqTCqH-43" value="3.2: Lưu hình ảnh đã xử lý()" style="edgeLabel;html=1;align=center;verticalAlign=middle;resizable=0;points=[];" vertex="1" connectable="0" parent="ep7vOEKuy8bBKtfqTCqH-42">
          <mxGeometry x="-0.3592" y="3" relative="1" as="geometry">
            <mxPoint x="38" y="-7" as="offset" />
          </mxGeometry>
        </mxCell>
        <mxCell id="ep7vOEKuy8bBKtfqTCqH-44" value="" style="html=1;points=[];perimeter=orthogonalPerimeter;outlineConnect=0;targetShapes=umlLifeline;portConstraint=eastwest;newEdgeStyle={&quot;edgeStyle&quot;:&quot;elbowEdgeStyle&quot;,&quot;elbow&quot;:&quot;vertical&quot;,&quot;curved&quot;:0,&quot;rounded&quot;:0};" vertex="1" parent="1">
          <mxGeometry x="45" y="440" width="10" height="70" as="geometry" />
        </mxCell>
        <mxCell id="ep7vOEKuy8bBKtfqTCqH-50" value="&lt;font style=&quot;font-size: 10px;&quot;&gt;Controller&lt;/font&gt;" style="shape=umlLifeline;perimeter=lifelinePerimeter;whiteSpace=wrap;html=1;container=1;dropTarget=0;collapsible=0;recursiveResize=0;outlineConnect=0;portConstraint=eastwest;newEdgeStyle={&quot;curved&quot;:0,&quot;rounded&quot;:0};participant=umlControl;" vertex="1" parent="1">
          <mxGeometry x="-190" y="40" width="40" height="520" as="geometry" />
        </mxCell>
        <mxCell id="ep7vOEKuy8bBKtfqTCqH-62" value="" style="html=1;points=[];perimeter=orthogonalPerimeter;outlineConnect=0;targetShapes=umlLifeline;portConstraint=eastwest;newEdgeStyle={&quot;edgeStyle&quot;:&quot;elbowEdgeStyle&quot;,&quot;elbow&quot;:&quot;vertical&quot;,&quot;curved&quot;:0,&quot;rounded&quot;:0};" vertex="1" parent="ep7vOEKuy8bBKtfqTCqH-50">
          <mxGeometry x="15" y="90" width="10" height="65" as="geometry" />
        </mxCell>
        <mxCell id="ep7vOEKuy8bBKtfqTCqH-51" value="&lt;font style=&quot;font-size: 10px;&quot;&gt;Monitor&lt;/font&gt;" style="shape=umlLifeline;perimeter=lifelinePerimeter;whiteSpace=wrap;html=1;container=1;dropTarget=0;collapsible=0;recursiveResize=0;outlineConnect=0;portConstraint=eastwest;newEdgeStyle={&quot;curved&quot;:0,&quot;rounded&quot;:0};participant=umlBoundary;align=right;" vertex="1" parent="1">
          <mxGeometry x="-405" y="40" width="50" height="520" as="geometry" />
        </mxCell>
        <mxCell id="ep7vOEKuy8bBKtfqTCqH-60" value="" style="html=1;points=[];perimeter=orthogonalPerimeter;outlineConnect=0;targetShapes=umlLifeline;portConstraint=eastwest;newEdgeStyle={&quot;edgeStyle&quot;:&quot;elbowEdgeStyle&quot;,&quot;elbow&quot;:&quot;vertical&quot;,&quot;curved&quot;:0,&quot;rounded&quot;:0};" vertex="1" parent="ep7vOEKuy8bBKtfqTCqH-51">
          <mxGeometry x="20" y="80" width="10" height="75" as="geometry" />
        </mxCell>
        <mxCell id="ep7vOEKuy8bBKtfqTCqH-52" value="&lt;font style=&quot;font-size: 10px;&quot;&gt;Database&lt;/font&gt;" style="shape=umlLifeline;perimeter=lifelinePerimeter;whiteSpace=wrap;html=1;container=1;dropTarget=0;collapsible=0;recursiveResize=0;outlineConnect=0;portConstraint=eastwest;newEdgeStyle={&quot;curved&quot;:0,&quot;rounded&quot;:0};participant=umlEntity;" vertex="1" parent="1">
          <mxGeometry x="30" y="40" width="40" height="520" as="geometry" />
        </mxCell>
        <mxCell id="ep7vOEKuy8bBKtfqTCqH-63" value="" style="html=1;points=[];perimeter=orthogonalPerimeter;outlineConnect=0;targetShapes=umlLifeline;portConstraint=eastwest;newEdgeStyle={&quot;edgeStyle&quot;:&quot;elbowEdgeStyle&quot;,&quot;elbow&quot;:&quot;vertical&quot;,&quot;curved&quot;:0,&quot;rounded&quot;:0};" vertex="1" parent="ep7vOEKuy8bBKtfqTCqH-52">
          <mxGeometry x="15" y="100" width="10" height="55" as="geometry" />
        </mxCell>
        <mxCell id="ep7vOEKuy8bBKtfqTCqH-53" value="&lt;span style=&quot;color: rgba(0, 0, 0, 0); font-family: monospace; font-size: 0px; text-align: start; text-wrap: nowrap;&quot;&gt;sdfsad&lt;/span&gt;" style="shape=umlLifeline;perimeter=lifelinePerimeter;whiteSpace=wrap;html=1;container=1;dropTarget=0;collapsible=0;recursiveResize=0;outlineConnect=0;portConstraint=eastwest;newEdgeStyle={&quot;curved&quot;:0,&quot;rounded&quot;:0};participant=umlActor;" vertex="1" parent="1">
          <mxGeometry x="-570" y="40" width="20" height="520" as="geometry" />
        </mxCell>
        <mxCell id="ep7vOEKuy8bBKtfqTCqH-59" value="" style="html=1;points=[];perimeter=orthogonalPerimeter;outlineConnect=0;targetShapes=umlLifeline;portConstraint=eastwest;newEdgeStyle={&quot;edgeStyle&quot;:&quot;elbowEdgeStyle&quot;,&quot;elbow&quot;:&quot;vertical&quot;,&quot;curved&quot;:0,&quot;rounded&quot;:0};" vertex="1" parent="ep7vOEKuy8bBKtfqTCqH-53">
          <mxGeometry x="5" y="70" width="10" height="85" as="geometry" />
        </mxCell>
        <mxCell id="ep7vOEKuy8bBKtfqTCqH-56" value="[Tra cứu cư dân]" style="html=1;verticalAlign=bottom;startArrow=oval;endArrow=block;startSize=8;edgeStyle=elbowEdgeStyle;elbow=vertical;curved=0;rounded=0;" edge="1" parent="1">
          <mxGeometry x="-0.4924" y="10" relative="1" as="geometry">
            <mxPoint x="-625" y="110.02000000000001" as="sourcePoint" />
            <mxPoint x="-565" y="110.02000000000001" as="targetPoint" />
            <mxPoint as="offset" />
          </mxGeometry>
        </mxCell>
        <mxCell id="ep7vOEKuy8bBKtfqTCqH-61" value="1: Tra cứu cư dân()" style="html=1;verticalAlign=bottom;endArrow=block;edgeStyle=elbowEdgeStyle;elbow=vertical;curved=0;rounded=0;" edge="1" parent="1" source="ep7vOEKuy8bBKtfqTCqH-59">
          <mxGeometry x="0.0014" relative="1" as="geometry">
            <mxPoint x="-550" y="120" as="sourcePoint" />
            <Array as="points">
              <mxPoint x="-465" y="120" />
            </Array>
            <mxPoint x="-380" y="120" as="targetPoint" />
            <mxPoint as="offset" />
          </mxGeometry>
        </mxCell>
        <mxCell id="ep7vOEKuy8bBKtfqTCqH-67" style="edgeStyle=elbowEdgeStyle;rounded=0;orthogonalLoop=1;jettySize=auto;html=1;elbow=vertical;curved=0;" edge="1" parent="1">
          <mxGeometry relative="1" as="geometry">
            <mxPoint x="-165" y="1020.0044827586207" as="sourcePoint" />
            <mxPoint x="45" y="1020.0044827586207" as="targetPoint" />
          </mxGeometry>
        </mxCell>
        <mxCell id="ep7vOEKuy8bBKtfqTCqH-68" value="2.2: Thêm dữ liệu cư dân()" style="edgeLabel;html=1;align=center;verticalAlign=middle;resizable=0;points=[];" vertex="1" connectable="0" parent="ep7vOEKuy8bBKtfqTCqH-67">
          <mxGeometry x="-0.3592" y="3" relative="1" as="geometry">
            <mxPoint x="38" y="-7" as="offset" />
          </mxGeometry>
        </mxCell>
        <mxCell id="ep7vOEKuy8bBKtfqTCqH-69" value="&lt;font style=&quot;font-size: 10px;&quot;&gt;sd addTenant&lt;/font&gt;" style="shape=umlFrame;whiteSpace=wrap;html=1;pointerEvents=0;width=140;height=20;" vertex="1" parent="1">
          <mxGeometry x="-740" y="620" width="900" height="510" as="geometry" />
        </mxCell>
        <mxCell id="ep7vOEKuy8bBKtfqTCqH-76" value="" style="html=1;points=[];perimeter=orthogonalPerimeter;outlineConnect=0;targetShapes=umlLifeline;portConstraint=eastwest;newEdgeStyle={&quot;edgeStyle&quot;:&quot;elbowEdgeStyle&quot;,&quot;elbow&quot;:&quot;vertical&quot;,&quot;curved&quot;:0,&quot;rounded&quot;:0};" vertex="1" parent="1">
          <mxGeometry x="-565" y="990" width="10" height="100" as="geometry" />
        </mxCell>
        <mxCell id="ep7vOEKuy8bBKtfqTCqH-77" value="[Thêm cư dân]" style="html=1;verticalAlign=bottom;startArrow=oval;endArrow=block;startSize=8;edgeStyle=elbowEdgeStyle;elbow=vertical;curved=0;rounded=0;" edge="1" parent="1">
          <mxGeometry x="-0.4927" y="10" relative="1" as="geometry">
            <mxPoint x="-625" y="990" as="sourcePoint" />
            <mxPoint x="-565" y="990" as="targetPoint" />
            <mxPoint as="offset" />
          </mxGeometry>
        </mxCell>
        <mxCell id="ep7vOEKuy8bBKtfqTCqH-78" value="2: Chọn hợp đồng()" style="html=1;verticalAlign=bottom;endArrow=block;edgeStyle=elbowEdgeStyle;elbow=vertical;curved=0;rounded=0;" edge="1" parent="1">
          <mxGeometry x="0.0065" relative="1" as="geometry">
            <mxPoint x="-555" y="1000" as="sourcePoint" />
            <Array as="points">
              <mxPoint x="-470" y="1000" />
            </Array>
            <mxPoint x="-385" y="1000" as="targetPoint" />
            <mxPoint as="offset" />
          </mxGeometry>
        </mxCell>
        <mxCell id="ep7vOEKuy8bBKtfqTCqH-79" value="" style="html=1;points=[];perimeter=orthogonalPerimeter;outlineConnect=0;targetShapes=umlLifeline;portConstraint=eastwest;newEdgeStyle={&quot;edgeStyle&quot;:&quot;elbowEdgeStyle&quot;,&quot;elbow&quot;:&quot;vertical&quot;,&quot;curved&quot;:0,&quot;rounded&quot;:0};" vertex="1" parent="1">
          <mxGeometry x="-385" y="1000" width="10" height="90" as="geometry" />
        </mxCell>
        <mxCell id="ep7vOEKuy8bBKtfqTCqH-80" value="" style="html=1;points=[];perimeter=orthogonalPerimeter;outlineConnect=0;targetShapes=umlLifeline;portConstraint=eastwest;newEdgeStyle={&quot;edgeStyle&quot;:&quot;elbowEdgeStyle&quot;,&quot;elbow&quot;:&quot;vertical&quot;,&quot;curved&quot;:0,&quot;rounded&quot;:0};" vertex="1" parent="1">
          <mxGeometry x="-175" y="1010" width="10" height="80" as="geometry" />
        </mxCell>
        <mxCell id="ep7vOEKuy8bBKtfqTCqH-81" style="edgeStyle=elbowEdgeStyle;rounded=0;orthogonalLoop=1;jettySize=auto;html=1;elbow=vertical;curved=0;" edge="1" parent="1">
          <mxGeometry relative="1" as="geometry">
            <mxPoint x="-375" y="1010" as="sourcePoint" />
            <mxPoint x="-175" y="1010" as="targetPoint" />
            <Array as="points">
              <mxPoint x="-300" y="1010" />
              <mxPoint x="-260" y="1000" />
            </Array>
          </mxGeometry>
        </mxCell>
        <mxCell id="ep7vOEKuy8bBKtfqTCqH-82" value="2.1: Xử lý thông tin()" style="edgeLabel;html=1;align=center;verticalAlign=middle;resizable=0;points=[];" vertex="1" connectable="0" parent="ep7vOEKuy8bBKtfqTCqH-81">
          <mxGeometry x="0.0893" y="-1" relative="1" as="geometry">
            <mxPoint x="-4" y="-11" as="offset" />
          </mxGeometry>
        </mxCell>
        <mxCell id="ep7vOEKuy8bBKtfqTCqH-85" value="" style="html=1;points=[];perimeter=orthogonalPerimeter;outlineConnect=0;targetShapes=umlLifeline;portConstraint=eastwest;newEdgeStyle={&quot;edgeStyle&quot;:&quot;elbowEdgeStyle&quot;,&quot;elbow&quot;:&quot;vertical&quot;,&quot;curved&quot;:0,&quot;rounded&quot;:0};" vertex="1" parent="1">
          <mxGeometry x="45" y="1020" width="10" height="70" as="geometry" />
        </mxCell>
        <mxCell id="ep7vOEKuy8bBKtfqTCqH-86" value="&lt;font style=&quot;font-size: 10px;&quot;&gt;Controller&lt;/font&gt;" style="shape=umlLifeline;perimeter=lifelinePerimeter;whiteSpace=wrap;html=1;container=1;dropTarget=0;collapsible=0;recursiveResize=0;outlineConnect=0;portConstraint=eastwest;newEdgeStyle={&quot;curved&quot;:0,&quot;rounded&quot;:0};participant=umlControl;" vertex="1" parent="1">
          <mxGeometry x="-190" y="650" width="40" height="470" as="geometry" />
        </mxCell>
        <mxCell id="ep7vOEKuy8bBKtfqTCqH-87" value="" style="html=1;points=[];perimeter=orthogonalPerimeter;outlineConnect=0;targetShapes=umlLifeline;portConstraint=eastwest;newEdgeStyle={&quot;edgeStyle&quot;:&quot;elbowEdgeStyle&quot;,&quot;elbow&quot;:&quot;vertical&quot;,&quot;curved&quot;:0,&quot;rounded&quot;:0};" vertex="1" parent="ep7vOEKuy8bBKtfqTCqH-86">
          <mxGeometry x="15" y="90" width="10" height="65" as="geometry" />
        </mxCell>
        <mxCell id="ep7vOEKuy8bBKtfqTCqH-88" value="&lt;font style=&quot;font-size: 10px;&quot;&gt;Monitor&lt;/font&gt;" style="shape=umlLifeline;perimeter=lifelinePerimeter;whiteSpace=wrap;html=1;container=1;dropTarget=0;collapsible=0;recursiveResize=0;outlineConnect=0;portConstraint=eastwest;newEdgeStyle={&quot;curved&quot;:0,&quot;rounded&quot;:0};participant=umlBoundary;align=right;" vertex="1" parent="1">
          <mxGeometry x="-405" y="650" width="50" height="470" as="geometry" />
        </mxCell>
        <mxCell id="ep7vOEKuy8bBKtfqTCqH-89" value="" style="html=1;points=[];perimeter=orthogonalPerimeter;outlineConnect=0;targetShapes=umlLifeline;portConstraint=eastwest;newEdgeStyle={&quot;edgeStyle&quot;:&quot;elbowEdgeStyle&quot;,&quot;elbow&quot;:&quot;vertical&quot;,&quot;curved&quot;:0,&quot;rounded&quot;:0};" vertex="1" parent="ep7vOEKuy8bBKtfqTCqH-88">
          <mxGeometry x="20" y="80" width="10" height="75" as="geometry" />
        </mxCell>
        <mxCell id="ep7vOEKuy8bBKtfqTCqH-90" value="&lt;font style=&quot;font-size: 10px;&quot;&gt;Database&lt;/font&gt;" style="shape=umlLifeline;perimeter=lifelinePerimeter;whiteSpace=wrap;html=1;container=1;dropTarget=0;collapsible=0;recursiveResize=0;outlineConnect=0;portConstraint=eastwest;newEdgeStyle={&quot;curved&quot;:0,&quot;rounded&quot;:0};participant=umlEntity;" vertex="1" parent="1">
          <mxGeometry x="30" y="650" width="40" height="470" as="geometry" />
        </mxCell>
        <mxCell id="ep7vOEKuy8bBKtfqTCqH-92" value="&lt;span style=&quot;color: rgba(0, 0, 0, 0); font-family: monospace; font-size: 0px; text-align: start; text-wrap: nowrap;&quot;&gt;%3CmxGraphModel%3E%3Croot%3E%3CmxCell%20id%3D%220%22%2F%3E%3CmxCell%20id%3D%221%22%20parent%3D%220%22%2F%3E%3CmxCell%20id%3D%222%22%20value%3D%22%22%20style%3D%22shape%3DumlLifeline%3Bperimeter%3DlifelinePerimeter%3BwhiteSpace%3Dwrap%3Bhtml%3D1%3Bcontainer%3D1%3BdropTarget%3D0%3Bcollapsible%3D0%3BrecursiveResize%3D0%3BoutlineConnect%3D0%3BportConstraint%3Deastwest%3BnewEdgeStyle%3D%7B%26quot%3Bcurved%26quot%3B%3A0%2C%26quot%3Brounded%26quot%3B%3A0%7D%3Bparticipant%3DumlActor%3B%22%20vertex%3D%221%22%20parent%3D%221%22%3E%3CmxGeometry%20x%3D%22-570%22%20y%3D%2240%22%20width%3D%2220%22%20height%3D%22520%22%20as%3D%22geometry%22%2F%3E%3C%2FmxCell%3E%3C%2Froot%3E%3C%2FmxGraphModel%3E&lt;/span&gt;" style="shape=umlLifeline;perimeter=lifelinePerimeter;whiteSpace=wrap;html=1;container=1;dropTarget=0;collapsible=0;recursiveResize=0;outlineConnect=0;portConstraint=eastwest;newEdgeStyle={&quot;curved&quot;:0,&quot;rounded&quot;:0};participant=umlActor;" vertex="1" parent="1">
          <mxGeometry x="-570" y="650" width="20" height="470" as="geometry" />
        </mxCell>
        <mxCell id="ep7vOEKuy8bBKtfqTCqH-93" value="" style="html=1;points=[];perimeter=orthogonalPerimeter;outlineConnect=0;targetShapes=umlLifeline;portConstraint=eastwest;newEdgeStyle={&quot;edgeStyle&quot;:&quot;elbowEdgeStyle&quot;,&quot;elbow&quot;:&quot;vertical&quot;,&quot;curved&quot;:0,&quot;rounded&quot;:0};" vertex="1" parent="ep7vOEKuy8bBKtfqTCqH-92">
          <mxGeometry x="5" y="70" width="10" height="85" as="geometry" />
        </mxCell>
        <mxCell id="ep7vOEKuy8bBKtfqTCqH-94" value="[Nhập thông tin cư dân]" style="html=1;verticalAlign=bottom;startArrow=oval;endArrow=block;startSize=8;edgeStyle=elbowEdgeStyle;elbow=vertical;curved=0;rounded=0;" edge="1" parent="1">
          <mxGeometry x="-0.9848" y="10" relative="1" as="geometry">
            <mxPoint x="-625" y="720.02" as="sourcePoint" />
            <mxPoint x="-565" y="720.02" as="targetPoint" />
            <mxPoint as="offset" />
          </mxGeometry>
        </mxCell>
        <mxCell id="ep7vOEKuy8bBKtfqTCqH-95" value="1: Nhập thông tin cư dân()" style="html=1;verticalAlign=bottom;endArrow=block;edgeStyle=elbowEdgeStyle;elbow=vertical;curved=0;rounded=0;" edge="1" parent="1" source="ep7vOEKuy8bBKtfqTCqH-93">
          <mxGeometry x="0.0014" relative="1" as="geometry">
            <mxPoint x="-550" y="730" as="sourcePoint" />
            <Array as="points">
              <mxPoint x="-465" y="730" />
            </Array>
            <mxPoint x="-380" y="730" as="targetPoint" />
            <mxPoint as="offset" />
          </mxGeometry>
        </mxCell>
        <mxCell id="ep7vOEKuy8bBKtfqTCqH-97" style="edgeStyle=elbowEdgeStyle;rounded=0;orthogonalLoop=1;jettySize=auto;html=1;elbow=vertical;curved=0;" edge="1" parent="1">
          <mxGeometry relative="1" as="geometry">
            <mxPoint x="-375" y="880" as="sourcePoint" />
            <mxPoint x="-175" y="880" as="targetPoint" />
            <Array as="points">
              <mxPoint x="-300" y="880" />
              <mxPoint x="-260" y="870" />
            </Array>
          </mxGeometry>
        </mxCell>
        <mxCell id="ep7vOEKuy8bBKtfqTCqH-98" value="1.1: Lấy danh sách hợp đồng()" style="edgeLabel;html=1;align=center;verticalAlign=middle;resizable=0;points=[];" vertex="1" connectable="0" parent="ep7vOEKuy8bBKtfqTCqH-97">
          <mxGeometry x="0.0893" y="-1" relative="1" as="geometry">
            <mxPoint x="-4" y="-11" as="offset" />
          </mxGeometry>
        </mxCell>
        <mxCell id="ep7vOEKuy8bBKtfqTCqH-99" style="edgeStyle=elbowEdgeStyle;rounded=0;orthogonalLoop=1;jettySize=auto;html=1;elbow=vertical;curved=0;" edge="1" parent="1">
          <mxGeometry relative="1" as="geometry">
            <mxPoint x="-165" y="890.0044827586207" as="sourcePoint" />
            <mxPoint x="45" y="890.0044827586207" as="targetPoint" />
          </mxGeometry>
        </mxCell>
        <mxCell id="ep7vOEKuy8bBKtfqTCqH-100" value="1.2: Truy vấn thông tin hợp đồng()" style="edgeLabel;html=1;align=center;verticalAlign=middle;resizable=0;points=[];" vertex="1" connectable="0" parent="ep7vOEKuy8bBKtfqTCqH-99">
          <mxGeometry x="-0.3592" y="3" relative="1" as="geometry">
            <mxPoint x="38" y="-7" as="offset" />
          </mxGeometry>
        </mxCell>
        <mxCell id="ep7vOEKuy8bBKtfqTCqH-101" value="" style="html=1;points=[];perimeter=orthogonalPerimeter;outlineConnect=0;targetShapes=umlLifeline;portConstraint=eastwest;newEdgeStyle={&quot;edgeStyle&quot;:&quot;elbowEdgeStyle&quot;,&quot;elbow&quot;:&quot;vertical&quot;,&quot;curved&quot;:0,&quot;rounded&quot;:0};" vertex="1" parent="1">
          <mxGeometry x="-175" y="880" width="10" height="65" as="geometry" />
        </mxCell>
        <mxCell id="ep7vOEKuy8bBKtfqTCqH-102" value="" style="html=1;points=[];perimeter=orthogonalPerimeter;outlineConnect=0;targetShapes=umlLifeline;portConstraint=eastwest;newEdgeStyle={&quot;edgeStyle&quot;:&quot;elbowEdgeStyle&quot;,&quot;elbow&quot;:&quot;vertical&quot;,&quot;curved&quot;:0,&quot;rounded&quot;:0};" vertex="1" parent="1">
          <mxGeometry x="-385" y="870" width="10" height="75" as="geometry" />
        </mxCell>
        <mxCell id="ep7vOEKuy8bBKtfqTCqH-103" value="" style="html=1;points=[];perimeter=orthogonalPerimeter;outlineConnect=0;targetShapes=umlLifeline;portConstraint=eastwest;newEdgeStyle={&quot;edgeStyle&quot;:&quot;elbowEdgeStyle&quot;,&quot;elbow&quot;:&quot;vertical&quot;,&quot;curved&quot;:0,&quot;rounded&quot;:0};" vertex="1" parent="1">
          <mxGeometry x="45" y="890" width="10" height="55" as="geometry" />
        </mxCell>
        <mxCell id="ep7vOEKuy8bBKtfqTCqH-104" value="" style="html=1;points=[];perimeter=orthogonalPerimeter;outlineConnect=0;targetShapes=umlLifeline;portConstraint=eastwest;newEdgeStyle={&quot;edgeStyle&quot;:&quot;elbowEdgeStyle&quot;,&quot;elbow&quot;:&quot;vertical&quot;,&quot;curved&quot;:0,&quot;rounded&quot;:0};" vertex="1" parent="1">
          <mxGeometry x="-565" y="860" width="10" height="85" as="geometry" />
        </mxCell>
        <mxCell id="ep7vOEKuy8bBKtfqTCqH-105" value="[Tra cứu hợp đồng]" style="html=1;verticalAlign=bottom;startArrow=oval;endArrow=block;startSize=8;edgeStyle=elbowEdgeStyle;elbow=vertical;curved=0;rounded=0;" edge="1" parent="1">
          <mxGeometry x="-0.4924" y="10" relative="1" as="geometry">
            <mxPoint x="-625" y="860.02" as="sourcePoint" />
            <mxPoint x="-565" y="860.02" as="targetPoint" />
            <mxPoint as="offset" />
          </mxGeometry>
        </mxCell>
        <mxCell id="ep7vOEKuy8bBKtfqTCqH-106" value="1: Tra cứu hợp đồng()" style="html=1;verticalAlign=bottom;endArrow=block;edgeStyle=elbowEdgeStyle;elbow=vertical;curved=0;rounded=0;" edge="1" parent="1" source="ep7vOEKuy8bBKtfqTCqH-104">
          <mxGeometry x="0.0014" relative="1" as="geometry">
            <mxPoint x="-550" y="870" as="sourcePoint" />
            <Array as="points">
              <mxPoint x="-465" y="870" />
            </Array>
            <mxPoint x="-380" y="870" as="targetPoint" />
            <mxPoint as="offset" />
          </mxGeometry>
        </mxCell>
        <mxCell id="ep7vOEKuy8bBKtfqTCqH-111" value="&lt;font style=&quot;font-size: 10px;&quot;&gt;sd payment&lt;/font&gt;" style="shape=umlFrame;whiteSpace=wrap;html=1;pointerEvents=0;width=140;height=20;" vertex="1" parent="1">
          <mxGeometry x="360" y="20" width="1280" height="590" as="geometry" />
        </mxCell>
        <mxCell id="ep7vOEKuy8bBKtfqTCqH-121" value="&lt;font style=&quot;font-size: 10px;&quot;&gt;Controller&lt;/font&gt;" style="shape=umlLifeline;perimeter=lifelinePerimeter;whiteSpace=wrap;html=1;container=1;dropTarget=0;collapsible=0;recursiveResize=0;outlineConnect=0;portConstraint=eastwest;newEdgeStyle={&quot;curved&quot;:0,&quot;rounded&quot;:0};participant=umlControl;" vertex="1" parent="1">
          <mxGeometry x="1020" y="50" width="40" height="540" as="geometry" />
        </mxCell>
        <mxCell id="ep7vOEKuy8bBKtfqTCqH-123" value="&lt;font style=&quot;font-size: 10px;&quot;&gt;Monitor&lt;/font&gt;" style="shape=umlLifeline;perimeter=lifelinePerimeter;whiteSpace=wrap;html=1;container=1;dropTarget=0;collapsible=0;recursiveResize=0;outlineConnect=0;portConstraint=eastwest;newEdgeStyle={&quot;curved&quot;:0,&quot;rounded&quot;:0};participant=umlBoundary;align=right;" vertex="1" parent="1">
          <mxGeometry x="805" y="50" width="50" height="540" as="geometry" />
        </mxCell>
        <mxCell id="ep7vOEKuy8bBKtfqTCqH-125" value="&lt;font style=&quot;font-size: 10px;&quot;&gt;Database&lt;/font&gt;" style="shape=umlLifeline;perimeter=lifelinePerimeter;whiteSpace=wrap;html=1;container=1;dropTarget=0;collapsible=0;recursiveResize=0;outlineConnect=0;portConstraint=eastwest;newEdgeStyle={&quot;curved&quot;:0,&quot;rounded&quot;:0};participant=umlEntity;" vertex="1" parent="1">
          <mxGeometry x="1240" y="50" width="40" height="540" as="geometry" />
        </mxCell>
        <mxCell id="ep7vOEKuy8bBKtfqTCqH-126" value="&lt;span style=&quot;color: rgba(0, 0, 0, 0); font-family: monospace; font-size: 0px; text-align: start; text-wrap: nowrap;&quot;&gt;%3CmxGraphModel%3E%3Croot%3E%3CmxCell%20id%3D%220%22%2F%3E%3CmxCell%20id%3D%221%22%20parent%3D%220%22%2F%3E%3CmxCell%20id%3D%222%22%20value%3D%22%22%20style%3D%22shape%3DumlLifeline%3Bperimeter%3DlifelinePerimeter%3BwhiteSpace%3Dwrap%3Bhtml%3D1%3Bcontainer%3D1%3BdropTarget%3D0%3Bcollapsible%3D0%3BrecursiveResize%3D0%3BoutlineConnect%3D0%3BportConstraint%3Deastwest%3BnewEdgeStyle%3D%7B%26quot%3Bcurved%26quot%3B%3A0%2C%26quot%3Brounded%26quot%3B%3A0%7D%3Bparticipant%3DumlActor%3B%22%20vertex%3D%221%22%20parent%3D%221%22%3E%3CmxGeometry%20x%3D%22-570%22%20y%3D%2240%22%20width%3D%2220%22%20height%3D%22520%22%20as%3D%22geometry%22%2F%3E%3C%2FmxCell%3E%3C%2Froot%3E%3C%2FmxGraphModel%3E&lt;/span&gt;" style="shape=umlLifeline;perimeter=lifelinePerimeter;whiteSpace=wrap;html=1;container=1;dropTarget=0;collapsible=0;recursiveResize=0;outlineConnect=0;portConstraint=eastwest;newEdgeStyle={&quot;curved&quot;:0,&quot;rounded&quot;:0};participant=umlActor;" vertex="1" parent="1">
          <mxGeometry x="640" y="50" width="20" height="540" as="geometry" />
        </mxCell>
        <mxCell id="ep7vOEKuy8bBKtfqTCqH-131" style="edgeStyle=elbowEdgeStyle;rounded=0;orthogonalLoop=1;jettySize=auto;html=1;elbow=vertical;curved=0;" edge="1" parent="1">
          <mxGeometry relative="1" as="geometry">
            <mxPoint x="835" y="150" as="sourcePoint" />
            <mxPoint x="1035" y="150" as="targetPoint" />
            <Array as="points">
              <mxPoint x="910" y="150" />
              <mxPoint x="950" y="140" />
            </Array>
          </mxGeometry>
        </mxCell>
        <mxCell id="ep7vOEKuy8bBKtfqTCqH-132" value="1.1: Lấy danh sách hóa đơn()" style="edgeLabel;html=1;align=center;verticalAlign=middle;resizable=0;points=[];" vertex="1" connectable="0" parent="ep7vOEKuy8bBKtfqTCqH-131">
          <mxGeometry x="0.0893" y="-1" relative="1" as="geometry">
            <mxPoint x="-4" y="-11" as="offset" />
          </mxGeometry>
        </mxCell>
        <mxCell id="ep7vOEKuy8bBKtfqTCqH-133" style="edgeStyle=elbowEdgeStyle;rounded=0;orthogonalLoop=1;jettySize=auto;html=1;elbow=vertical;curved=0;" edge="1" parent="1">
          <mxGeometry relative="1" as="geometry">
            <mxPoint x="1045" y="160.00448275862072" as="sourcePoint" />
            <mxPoint x="1255" y="160.00448275862072" as="targetPoint" />
          </mxGeometry>
        </mxCell>
        <mxCell id="ep7vOEKuy8bBKtfqTCqH-134" value="1.2: Truy vấn thông tin hóa đơn()" style="edgeLabel;html=1;align=center;verticalAlign=middle;resizable=0;points=[];" vertex="1" connectable="0" parent="ep7vOEKuy8bBKtfqTCqH-133">
          <mxGeometry x="-0.3592" y="3" relative="1" as="geometry">
            <mxPoint x="38" y="-7" as="offset" />
          </mxGeometry>
        </mxCell>
        <mxCell id="ep7vOEKuy8bBKtfqTCqH-135" value="" style="html=1;points=[];perimeter=orthogonalPerimeter;outlineConnect=0;targetShapes=umlLifeline;portConstraint=eastwest;newEdgeStyle={&quot;edgeStyle&quot;:&quot;elbowEdgeStyle&quot;,&quot;elbow&quot;:&quot;vertical&quot;,&quot;curved&quot;:0,&quot;rounded&quot;:0};" vertex="1" parent="1">
          <mxGeometry x="1035" y="150" width="10" height="65" as="geometry" />
        </mxCell>
        <mxCell id="ep7vOEKuy8bBKtfqTCqH-136" value="" style="html=1;points=[];perimeter=orthogonalPerimeter;outlineConnect=0;targetShapes=umlLifeline;portConstraint=eastwest;newEdgeStyle={&quot;edgeStyle&quot;:&quot;elbowEdgeStyle&quot;,&quot;elbow&quot;:&quot;vertical&quot;,&quot;curved&quot;:0,&quot;rounded&quot;:0};" vertex="1" parent="1">
          <mxGeometry x="825" y="140" width="10" height="75" as="geometry" />
        </mxCell>
        <mxCell id="ep7vOEKuy8bBKtfqTCqH-137" value="" style="html=1;points=[];perimeter=orthogonalPerimeter;outlineConnect=0;targetShapes=umlLifeline;portConstraint=eastwest;newEdgeStyle={&quot;edgeStyle&quot;:&quot;elbowEdgeStyle&quot;,&quot;elbow&quot;:&quot;vertical&quot;,&quot;curved&quot;:0,&quot;rounded&quot;:0};" vertex="1" parent="1">
          <mxGeometry x="1255" y="160" width="10" height="55" as="geometry" />
        </mxCell>
        <mxCell id="ep7vOEKuy8bBKtfqTCqH-138" value="" style="html=1;points=[];perimeter=orthogonalPerimeter;outlineConnect=0;targetShapes=umlLifeline;portConstraint=eastwest;newEdgeStyle={&quot;edgeStyle&quot;:&quot;elbowEdgeStyle&quot;,&quot;elbow&quot;:&quot;vertical&quot;,&quot;curved&quot;:0,&quot;rounded&quot;:0};" vertex="1" parent="1">
          <mxGeometry x="645" y="130" width="10" height="85" as="geometry" />
        </mxCell>
        <mxCell id="ep7vOEKuy8bBKtfqTCqH-139" value="[Tra cứu hóa đơn]" style="html=1;verticalAlign=bottom;startArrow=oval;endArrow=block;startSize=8;edgeStyle=elbowEdgeStyle;elbow=vertical;curved=0;rounded=0;" edge="1" parent="1">
          <mxGeometry x="-0.8206" y="10" relative="1" as="geometry">
            <mxPoint x="585" y="130.01999999999998" as="sourcePoint" />
            <mxPoint x="645" y="130.01999999999998" as="targetPoint" />
            <mxPoint as="offset" />
          </mxGeometry>
        </mxCell>
        <mxCell id="ep7vOEKuy8bBKtfqTCqH-140" value="1: Tra cứu hóa đơn()" style="html=1;verticalAlign=bottom;endArrow=block;edgeStyle=elbowEdgeStyle;elbow=horizontal;curved=0;rounded=0;" edge="1" parent="1" source="ep7vOEKuy8bBKtfqTCqH-138">
          <mxGeometry x="0.0014" relative="1" as="geometry">
            <mxPoint x="660" y="140" as="sourcePoint" />
            <Array as="points">
              <mxPoint x="745" y="140" />
            </Array>
            <mxPoint x="830" y="140" as="targetPoint" />
            <mxPoint as="offset" />
          </mxGeometry>
        </mxCell>
        <mxCell id="ep7vOEKuy8bBKtfqTCqH-148" value="" style="html=1;points=[];perimeter=orthogonalPerimeter;outlineConnect=0;targetShapes=umlLifeline;portConstraint=eastwest;newEdgeStyle={&quot;edgeStyle&quot;:&quot;elbowEdgeStyle&quot;,&quot;elbow&quot;:&quot;vertical&quot;,&quot;curved&quot;:0,&quot;rounded&quot;:0};" vertex="1" parent="1">
          <mxGeometry x="825" y="275" width="10" height="75" as="geometry" />
        </mxCell>
        <mxCell id="ep7vOEKuy8bBKtfqTCqH-150" value="" style="html=1;points=[];perimeter=orthogonalPerimeter;outlineConnect=0;targetShapes=umlLifeline;portConstraint=eastwest;newEdgeStyle={&quot;edgeStyle&quot;:&quot;elbowEdgeStyle&quot;,&quot;elbow&quot;:&quot;vertical&quot;,&quot;curved&quot;:0,&quot;rounded&quot;:0};" vertex="1" parent="1">
          <mxGeometry x="645" y="265" width="10" height="85" as="geometry" />
        </mxCell>
        <mxCell id="ep7vOEKuy8bBKtfqTCqH-151" value="[Chọn hóa đơn]" style="html=1;verticalAlign=bottom;startArrow=oval;endArrow=block;startSize=8;edgeStyle=elbowEdgeStyle;elbow=vertical;curved=0;rounded=0;" edge="1" parent="1">
          <mxGeometry x="-0.8308" y="15" relative="1" as="geometry">
            <mxPoint x="585" y="265.02" as="sourcePoint" />
            <mxPoint x="645" y="265.02" as="targetPoint" />
            <mxPoint as="offset" />
          </mxGeometry>
        </mxCell>
        <mxCell id="ep7vOEKuy8bBKtfqTCqH-152" value="2: Chọn hóa đơn()" style="html=1;verticalAlign=bottom;endArrow=block;edgeStyle=elbowEdgeStyle;elbow=vertical;curved=0;rounded=0;" edge="1" parent="1" source="ep7vOEKuy8bBKtfqTCqH-150">
          <mxGeometry x="0.0014" relative="1" as="geometry">
            <mxPoint x="660" y="275" as="sourcePoint" />
            <Array as="points">
              <mxPoint x="745" y="275" />
            </Array>
            <mxPoint x="830" y="275" as="targetPoint" />
            <mxPoint as="offset" />
          </mxGeometry>
        </mxCell>
        <mxCell id="ep7vOEKuy8bBKtfqTCqH-160" value="" style="html=1;points=[];perimeter=orthogonalPerimeter;outlineConnect=0;targetShapes=umlLifeline;portConstraint=eastwest;newEdgeStyle={&quot;edgeStyle&quot;:&quot;elbowEdgeStyle&quot;,&quot;elbow&quot;:&quot;vertical&quot;,&quot;curved&quot;:0,&quot;rounded&quot;:0};" vertex="1" parent="1">
          <mxGeometry x="825" y="410" width="10" height="160" as="geometry" />
        </mxCell>
        <mxCell id="ep7vOEKuy8bBKtfqTCqH-162" value="" style="html=1;points=[];perimeter=orthogonalPerimeter;outlineConnect=0;targetShapes=umlLifeline;portConstraint=eastwest;newEdgeStyle={&quot;edgeStyle&quot;:&quot;elbowEdgeStyle&quot;,&quot;elbow&quot;:&quot;vertical&quot;,&quot;curved&quot;:0,&quot;rounded&quot;:0};" vertex="1" parent="1">
          <mxGeometry x="645" y="400" width="10" height="170" as="geometry" />
        </mxCell>
        <mxCell id="ep7vOEKuy8bBKtfqTCqH-163" value="[Thanh toán]" style="html=1;verticalAlign=bottom;startArrow=oval;endArrow=block;startSize=8;edgeStyle=elbowEdgeStyle;elbow=vertical;curved=0;rounded=0;" edge="1" parent="1">
          <mxGeometry x="-0.9848" y="11" relative="1" as="geometry">
            <mxPoint x="585" y="400.02" as="sourcePoint" />
            <mxPoint x="645" y="400.02" as="targetPoint" />
            <mxPoint x="-5" y="1" as="offset" />
          </mxGeometry>
        </mxCell>
        <mxCell id="ep7vOEKuy8bBKtfqTCqH-164" value="3: Nhập thông tin thanh toán()" style="html=1;verticalAlign=bottom;endArrow=block;edgeStyle=elbowEdgeStyle;elbow=vertical;curved=0;rounded=0;" edge="1" parent="1" source="ep7vOEKuy8bBKtfqTCqH-162">
          <mxGeometry x="0.0032" relative="1" as="geometry">
            <mxPoint x="660" y="410" as="sourcePoint" />
            <Array as="points">
              <mxPoint x="745" y="410" />
            </Array>
            <mxPoint x="830" y="410" as="targetPoint" />
            <mxPoint as="offset" />
          </mxGeometry>
        </mxCell>
        <mxCell id="ep7vOEKuy8bBKtfqTCqH-165" value=":Stripe" style="shape=umlLifeline;perimeter=lifelinePerimeter;whiteSpace=wrap;html=1;container=1;dropTarget=0;collapsible=0;recursiveResize=0;outlineConnect=0;portConstraint=eastwest;newEdgeStyle={&quot;curved&quot;:0,&quot;rounded&quot;:0};" vertex="1" parent="1">
          <mxGeometry x="1400" y="50" width="100" height="540" as="geometry" />
        </mxCell>
        <mxCell id="ep7vOEKuy8bBKtfqTCqH-166" value="" style="html=1;points=[];perimeter=orthogonalPerimeter;outlineConnect=0;targetShapes=umlLifeline;portConstraint=eastwest;newEdgeStyle={&quot;edgeStyle&quot;:&quot;elbowEdgeStyle&quot;,&quot;elbow&quot;:&quot;vertical&quot;,&quot;curved&quot;:0,&quot;rounded&quot;:0};" vertex="1" parent="ep7vOEKuy8bBKtfqTCqH-165">
          <mxGeometry x="45" y="370" width="10" height="150" as="geometry" />
        </mxCell>
        <mxCell id="ep7vOEKuy8bBKtfqTCqH-167" value="3.1: Thông tin thanh toán()" style="html=1;verticalAlign=bottom;endArrow=block;edgeStyle=elbowEdgeStyle;elbow=horizontal;curved=0;rounded=0;" edge="1" parent="1" target="ep7vOEKuy8bBKtfqTCqH-166">
          <mxGeometry x="0.0032" relative="1" as="geometry">
            <mxPoint x="835" y="420" as="sourcePoint" />
            <Array as="points">
              <mxPoint x="925" y="420" />
            </Array>
            <mxPoint x="1010" y="420" as="targetPoint" />
            <mxPoint as="offset" />
          </mxGeometry>
        </mxCell>
        <mxCell id="ep7vOEKuy8bBKtfqTCqH-168" value=":MailDev" style="shape=umlLifeline;perimeter=lifelinePerimeter;whiteSpace=wrap;html=1;container=1;dropTarget=0;collapsible=0;recursiveResize=0;outlineConnect=0;portConstraint=eastwest;newEdgeStyle={&quot;curved&quot;:0,&quot;rounded&quot;:0};" vertex="1" parent="1">
          <mxGeometry x="1520" y="50" width="100" height="540" as="geometry" />
        </mxCell>
        <mxCell id="ep7vOEKuy8bBKtfqTCqH-169" value="" style="html=1;points=[];perimeter=orthogonalPerimeter;outlineConnect=0;targetShapes=umlLifeline;portConstraint=eastwest;newEdgeStyle={&quot;edgeStyle&quot;:&quot;elbowEdgeStyle&quot;,&quot;elbow&quot;:&quot;vertical&quot;,&quot;curved&quot;:0,&quot;rounded&quot;:0};" vertex="1" parent="ep7vOEKuy8bBKtfqTCqH-168">
          <mxGeometry x="45" y="390" width="10" height="130" as="geometry" />
        </mxCell>
        <mxCell id="ep7vOEKuy8bBKtfqTCqH-170" value="3.4: Email xác nhận()" style="html=1;verticalAlign=bottom;endArrow=block;edgeStyle=elbowEdgeStyle;elbow=horizontal;curved=0;rounded=0;" edge="1" parent="1" source="ep7vOEKuy8bBKtfqTCqH-171" target="ep7vOEKuy8bBKtfqTCqH-169">
          <mxGeometry x="0.1731" relative="1" as="geometry">
            <mxPoint x="1055" y="474.44" as="sourcePoint" />
            <Array as="points">
              <mxPoint x="1550" y="474.44" />
            </Array>
            <mxPoint x="1575" y="474.44" as="targetPoint" />
            <mxPoint x="-1" as="offset" />
          </mxGeometry>
        </mxCell>
        <mxCell id="ep7vOEKuy8bBKtfqTCqH-176" style="edgeStyle=elbowEdgeStyle;rounded=0;orthogonalLoop=1;jettySize=auto;html=1;elbow=vertical;curved=0;" edge="1" parent="1" target="ep7vOEKuy8bBKtfqTCqH-177">
          <mxGeometry relative="1" as="geometry">
            <mxPoint x="1045" y="450.44111111111107" as="sourcePoint" />
            <mxPoint x="1214.5" y="450.44" as="targetPoint" />
          </mxGeometry>
        </mxCell>
        <mxCell id="ep7vOEKuy8bBKtfqTCqH-178" value="3.3 Thêm dữ liệu thanh toán" style="edgeLabel;html=1;align=center;verticalAlign=middle;resizable=0;points=[];" vertex="1" connectable="0" parent="ep7vOEKuy8bBKtfqTCqH-176">
          <mxGeometry x="0.1964" y="3" relative="1" as="geometry">
            <mxPoint x="-24" y="-8" as="offset" />
          </mxGeometry>
        </mxCell>
        <mxCell id="ep7vOEKuy8bBKtfqTCqH-273" style="edgeStyle=elbowEdgeStyle;rounded=0;orthogonalLoop=1;jettySize=auto;html=1;elbow=vertical;curved=0;dashed=1;dashPattern=12 12;" edge="1" parent="1">
          <mxGeometry relative="1" as="geometry">
            <mxPoint x="1035" y="549.0011111111111" as="sourcePoint" />
            <mxPoint x="835" y="549.0011111111111" as="targetPoint" />
          </mxGeometry>
        </mxCell>
        <mxCell id="ep7vOEKuy8bBKtfqTCqH-274" value="Thanh toán thất bại()" style="edgeLabel;html=1;align=center;verticalAlign=middle;resizable=0;points=[];" vertex="1" connectable="0" parent="ep7vOEKuy8bBKtfqTCqH-273">
          <mxGeometry x="0.2243" y="4" relative="1" as="geometry">
            <mxPoint x="18" y="-4" as="offset" />
          </mxGeometry>
        </mxCell>
        <mxCell id="ep7vOEKuy8bBKtfqTCqH-171" value="" style="html=1;points=[];perimeter=orthogonalPerimeter;outlineConnect=0;targetShapes=umlLifeline;portConstraint=eastwest;newEdgeStyle={&quot;edgeStyle&quot;:&quot;elbowEdgeStyle&quot;,&quot;elbow&quot;:&quot;vertical&quot;,&quot;curved&quot;:0,&quot;rounded&quot;:0};" vertex="1" parent="1">
          <mxGeometry x="1035" y="440" width="10" height="130" as="geometry" />
        </mxCell>
        <mxCell id="ep7vOEKuy8bBKtfqTCqH-172" style="edgeStyle=elbowEdgeStyle;rounded=0;orthogonalLoop=1;jettySize=auto;html=1;elbow=vertical;curved=0;dashed=1;dashPattern=12 12;" edge="1" parent="1">
          <mxGeometry relative="1" as="geometry">
            <mxPoint x="1445" y="510.0011111111111" as="sourcePoint" />
            <mxPoint x="1045" y="510.0011111111111" as="targetPoint" />
          </mxGeometry>
        </mxCell>
        <mxCell id="ep7vOEKuy8bBKtfqTCqH-175" value="3.2 Thông tin thanh toán()" style="edgeLabel;html=1;align=center;verticalAlign=middle;resizable=0;points=[];" vertex="1" connectable="0" parent="ep7vOEKuy8bBKtfqTCqH-172">
          <mxGeometry x="0.2472" y="-3" relative="1" as="geometry">
            <mxPoint x="-25" y="3" as="offset" />
          </mxGeometry>
        </mxCell>
        <mxCell id="ep7vOEKuy8bBKtfqTCqH-177" value="" style="html=1;points=[];perimeter=orthogonalPerimeter;outlineConnect=0;targetShapes=umlLifeline;portConstraint=eastwest;newEdgeStyle={&quot;edgeStyle&quot;:&quot;elbowEdgeStyle&quot;,&quot;elbow&quot;:&quot;vertical&quot;,&quot;curved&quot;:0,&quot;rounded&quot;:0};" vertex="1" parent="1">
          <mxGeometry x="1255" y="450" width="10" height="120" as="geometry" />
        </mxCell>
        <mxCell id="ep7vOEKuy8bBKtfqTCqH-183" style="edgeStyle=elbowEdgeStyle;rounded=0;orthogonalLoop=1;jettySize=auto;html=1;elbow=vertical;curved=0;" edge="1" parent="1">
          <mxGeometry relative="1" as="geometry">
            <mxPoint x="1105" y="750" as="sourcePoint" />
            <mxPoint x="1305" y="750" as="targetPoint" />
            <Array as="points">
              <mxPoint x="1180" y="750" />
              <mxPoint x="1220" y="740" />
            </Array>
          </mxGeometry>
        </mxCell>
        <mxCell id="ep7vOEKuy8bBKtfqTCqH-184" value="1.1: Lấy danh sách hóa đơn()" style="edgeLabel;html=1;align=center;verticalAlign=middle;resizable=0;points=[];" vertex="1" connectable="0" parent="ep7vOEKuy8bBKtfqTCqH-183">
          <mxGeometry x="0.0893" y="-1" relative="1" as="geometry">
            <mxPoint x="-4" y="-11" as="offset" />
          </mxGeometry>
        </mxCell>
        <mxCell id="ep7vOEKuy8bBKtfqTCqH-185" style="edgeStyle=elbowEdgeStyle;rounded=0;orthogonalLoop=1;jettySize=auto;html=1;elbow=vertical;curved=0;" edge="1" parent="1">
          <mxGeometry relative="1" as="geometry">
            <mxPoint x="1315" y="760.0044827586207" as="sourcePoint" />
            <mxPoint x="1525" y="760.0044827586207" as="targetPoint" />
          </mxGeometry>
        </mxCell>
        <mxCell id="ep7vOEKuy8bBKtfqTCqH-186" value="1.2: Truy vấn thông tin hóa đơn()" style="edgeLabel;html=1;align=center;verticalAlign=middle;resizable=0;points=[];" vertex="1" connectable="0" parent="ep7vOEKuy8bBKtfqTCqH-185">
          <mxGeometry x="-0.3592" y="3" relative="1" as="geometry">
            <mxPoint x="38" y="-7" as="offset" />
          </mxGeometry>
        </mxCell>
        <mxCell id="ep7vOEKuy8bBKtfqTCqH-187" value="&lt;font style=&quot;font-size: 10px;&quot;&gt;sd completeInvoice&lt;/font&gt;" style="shape=umlFrame;whiteSpace=wrap;html=1;pointerEvents=0;width=140;height=20;" vertex="1" parent="1">
          <mxGeometry x="640" y="630" width="1000" height="522.5" as="geometry" />
        </mxCell>
        <mxCell id="ep7vOEKuy8bBKtfqTCqH-204" value="&lt;font style=&quot;font-size: 10px;&quot;&gt;Controller&lt;/font&gt;" style="shape=umlLifeline;perimeter=lifelinePerimeter;whiteSpace=wrap;html=1;container=1;dropTarget=0;collapsible=0;recursiveResize=0;outlineConnect=0;portConstraint=eastwest;newEdgeStyle={&quot;curved&quot;:0,&quot;rounded&quot;:0};participant=umlControl;" vertex="1" parent="1">
          <mxGeometry x="1290" y="660" width="40" height="462.5" as="geometry" />
        </mxCell>
        <mxCell id="ep7vOEKuy8bBKtfqTCqH-205" value="" style="html=1;points=[];perimeter=orthogonalPerimeter;outlineConnect=0;targetShapes=umlLifeline;portConstraint=eastwest;newEdgeStyle={&quot;edgeStyle&quot;:&quot;elbowEdgeStyle&quot;,&quot;elbow&quot;:&quot;vertical&quot;,&quot;curved&quot;:0,&quot;rounded&quot;:0};" vertex="1" parent="ep7vOEKuy8bBKtfqTCqH-204">
          <mxGeometry x="15" y="90" width="10" height="65" as="geometry" />
        </mxCell>
        <mxCell id="ep7vOEKuy8bBKtfqTCqH-206" value="&lt;font style=&quot;font-size: 10px;&quot;&gt;monitor&lt;/font&gt;" style="shape=umlLifeline;perimeter=lifelinePerimeter;whiteSpace=wrap;html=1;container=1;dropTarget=0;collapsible=0;recursiveResize=0;outlineConnect=0;portConstraint=eastwest;newEdgeStyle={&quot;curved&quot;:0,&quot;rounded&quot;:0};participant=umlBoundary;align=right;" vertex="1" parent="1">
          <mxGeometry x="1075" y="660" width="50" height="462.5" as="geometry" />
        </mxCell>
        <mxCell id="ep7vOEKuy8bBKtfqTCqH-207" value="" style="html=1;points=[];perimeter=orthogonalPerimeter;outlineConnect=0;targetShapes=umlLifeline;portConstraint=eastwest;newEdgeStyle={&quot;edgeStyle&quot;:&quot;elbowEdgeStyle&quot;,&quot;elbow&quot;:&quot;vertical&quot;,&quot;curved&quot;:0,&quot;rounded&quot;:0};" vertex="1" parent="ep7vOEKuy8bBKtfqTCqH-206">
          <mxGeometry x="20" y="80" width="10" height="75" as="geometry" />
        </mxCell>
        <mxCell id="ep7vOEKuy8bBKtfqTCqH-208" value="&lt;font style=&quot;font-size: 10px;&quot;&gt;Database&lt;/font&gt;" style="shape=umlLifeline;perimeter=lifelinePerimeter;whiteSpace=wrap;html=1;container=1;dropTarget=0;collapsible=0;recursiveResize=0;outlineConnect=0;portConstraint=eastwest;newEdgeStyle={&quot;curved&quot;:0,&quot;rounded&quot;:0};participant=umlEntity;" vertex="1" parent="1">
          <mxGeometry x="1510" y="660" width="40" height="462.5" as="geometry" />
        </mxCell>
        <mxCell id="ep7vOEKuy8bBKtfqTCqH-209" value="" style="html=1;points=[];perimeter=orthogonalPerimeter;outlineConnect=0;targetShapes=umlLifeline;portConstraint=eastwest;newEdgeStyle={&quot;edgeStyle&quot;:&quot;elbowEdgeStyle&quot;,&quot;elbow&quot;:&quot;vertical&quot;,&quot;curved&quot;:0,&quot;rounded&quot;:0};" vertex="1" parent="ep7vOEKuy8bBKtfqTCqH-208">
          <mxGeometry x="15" y="100" width="10" height="55" as="geometry" />
        </mxCell>
        <mxCell id="ep7vOEKuy8bBKtfqTCqH-210" value="&lt;span style=&quot;color: rgba(0, 0, 0, 0); font-family: monospace; font-size: 0px; text-align: start; text-wrap: nowrap;&quot;&gt;%3CmxGraphModel%3E%3Croot%3E%3CmxCell%20id%3D%220%22%2F%3E%3CmxCell%20id%3D%221%22%20parent%3D%220%22%2F%3E%3CmxCell%20id%3D%222%22%20value%3D%22%22%20style%3D%22shape%3DumlLifeline%3Bperimeter%3DlifelinePerimeter%3BwhiteSpace%3Dwrap%3Bhtml%3D1%3Bcontainer%3D1%3BdropTarget%3D0%3Bcollapsible%3D0%3BrecursiveResize%3D0%3BoutlineConnect%3D0%3BportConstraint%3Deastwest%3BnewEdgeStyle%3D%7B%26quot%3Bcurved%26quot%3B%3A0%2C%26quot%3Brounded%26quot%3B%3A0%7D%3Bparticipant%3DumlActor%3B%22%20vertex%3D%221%22%20parent%3D%221%22%3E%3CmxGeometry%20x%3D%22-570%22%20y%3D%2240%22%20width%3D%2220%22%20height%3D%22520%22%20as%3D%22geometry%22%2F%3E%3C%2FmxCell%3E%3C%2Froot%3E%3C%2FmxGraphModel%3E&lt;/span&gt;" style="shape=umlLifeline;perimeter=lifelinePerimeter;whiteSpace=wrap;html=1;container=1;dropTarget=0;collapsible=0;recursiveResize=0;outlineConnect=0;portConstraint=eastwest;newEdgeStyle={&quot;curved&quot;:0,&quot;rounded&quot;:0};participant=umlActor;" vertex="1" parent="1">
          <mxGeometry x="910" y="660" width="20" height="462.5" as="geometry" />
        </mxCell>
        <mxCell id="ep7vOEKuy8bBKtfqTCqH-211" value="" style="html=1;points=[];perimeter=orthogonalPerimeter;outlineConnect=0;targetShapes=umlLifeline;portConstraint=eastwest;newEdgeStyle={&quot;edgeStyle&quot;:&quot;elbowEdgeStyle&quot;,&quot;elbow&quot;:&quot;vertical&quot;,&quot;curved&quot;:0,&quot;rounded&quot;:0};" vertex="1" parent="ep7vOEKuy8bBKtfqTCqH-210">
          <mxGeometry x="5" y="70" width="10" height="85" as="geometry" />
        </mxCell>
        <mxCell id="ep7vOEKuy8bBKtfqTCqH-212" value="[Tra cứu hóa đơn]" style="html=1;verticalAlign=bottom;startArrow=oval;endArrow=block;startSize=8;edgeStyle=elbowEdgeStyle;elbow=vertical;curved=0;rounded=0;" edge="1" parent="1">
          <mxGeometry x="-0.4969" y="7" relative="1" as="geometry">
            <mxPoint x="855" y="730.02" as="sourcePoint" />
            <mxPoint x="915" y="730.02" as="targetPoint" />
            <mxPoint as="offset" />
          </mxGeometry>
        </mxCell>
        <mxCell id="ep7vOEKuy8bBKtfqTCqH-213" value="1: Tra cứu hóa đơn()" style="html=1;verticalAlign=bottom;endArrow=block;edgeStyle=elbowEdgeStyle;elbow=vertical;curved=0;rounded=0;" edge="1" parent="1" source="ep7vOEKuy8bBKtfqTCqH-211">
          <mxGeometry x="0.0014" relative="1" as="geometry">
            <mxPoint x="930" y="740" as="sourcePoint" />
            <Array as="points">
              <mxPoint x="1015" y="740" />
            </Array>
            <mxPoint x="1100" y="740" as="targetPoint" />
            <mxPoint as="offset" />
          </mxGeometry>
        </mxCell>
        <mxCell id="ep7vOEKuy8bBKtfqTCqH-220" value="" style="html=1;points=[];perimeter=orthogonalPerimeter;outlineConnect=0;targetShapes=umlLifeline;portConstraint=eastwest;newEdgeStyle={&quot;edgeStyle&quot;:&quot;elbowEdgeStyle&quot;,&quot;elbow&quot;:&quot;vertical&quot;,&quot;curved&quot;:0,&quot;rounded&quot;:0};" vertex="1" parent="1">
          <mxGeometry x="1095" y="890" width="10" height="75" as="geometry" />
        </mxCell>
        <mxCell id="ep7vOEKuy8bBKtfqTCqH-222" value="" style="html=1;points=[];perimeter=orthogonalPerimeter;outlineConnect=0;targetShapes=umlLifeline;portConstraint=eastwest;newEdgeStyle={&quot;edgeStyle&quot;:&quot;elbowEdgeStyle&quot;,&quot;elbow&quot;:&quot;vertical&quot;,&quot;curved&quot;:0,&quot;rounded&quot;:0};" vertex="1" parent="1">
          <mxGeometry x="915" y="880" width="10" height="85" as="geometry" />
        </mxCell>
        <mxCell id="ep7vOEKuy8bBKtfqTCqH-223" value="[Chọn hóa đơn]" style="html=1;verticalAlign=bottom;startArrow=oval;endArrow=block;startSize=8;edgeStyle=elbowEdgeStyle;elbow=vertical;curved=0;rounded=0;" edge="1" parent="1">
          <mxGeometry x="-0.8282" y="7" relative="1" as="geometry">
            <mxPoint x="855" y="880.02" as="sourcePoint" />
            <mxPoint x="915" y="880.02" as="targetPoint" />
            <mxPoint as="offset" />
          </mxGeometry>
        </mxCell>
        <mxCell id="ep7vOEKuy8bBKtfqTCqH-224" value="2: Chọn hóa đơn()" style="html=1;verticalAlign=bottom;endArrow=block;edgeStyle=elbowEdgeStyle;elbow=vertical;curved=0;rounded=0;" edge="1" parent="1" source="ep7vOEKuy8bBKtfqTCqH-222">
          <mxGeometry x="0.0014" relative="1" as="geometry">
            <mxPoint x="930" y="890" as="sourcePoint" />
            <Array as="points">
              <mxPoint x="1015" y="890" />
            </Array>
            <mxPoint x="1100" y="890" as="targetPoint" />
            <mxPoint as="offset" />
          </mxGeometry>
        </mxCell>
        <mxCell id="ep7vOEKuy8bBKtfqTCqH-226" style="edgeStyle=elbowEdgeStyle;rounded=0;orthogonalLoop=1;jettySize=auto;html=1;elbow=vertical;curved=0;" edge="1" parent="1">
          <mxGeometry relative="1" as="geometry">
            <mxPoint x="1105" y="1032.5" as="sourcePoint" />
            <mxPoint x="1305" y="1032.5" as="targetPoint" />
            <Array as="points">
              <mxPoint x="1180" y="1032.5" />
              <mxPoint x="1220" y="1022.5" />
            </Array>
          </mxGeometry>
        </mxCell>
        <mxCell id="ep7vOEKuy8bBKtfqTCqH-227" value="3.1: Xử lý thông tin()" style="edgeLabel;html=1;align=center;verticalAlign=middle;resizable=0;points=[];" vertex="1" connectable="0" parent="ep7vOEKuy8bBKtfqTCqH-226">
          <mxGeometry x="0.0893" y="-1" relative="1" as="geometry">
            <mxPoint x="-4" y="-11" as="offset" />
          </mxGeometry>
        </mxCell>
        <mxCell id="ep7vOEKuy8bBKtfqTCqH-228" style="edgeStyle=elbowEdgeStyle;rounded=0;orthogonalLoop=1;jettySize=auto;html=1;elbow=vertical;curved=0;" edge="1" parent="1">
          <mxGeometry relative="1" as="geometry">
            <mxPoint x="1315" y="1042.5044827586207" as="sourcePoint" />
            <mxPoint x="1525" y="1042.5044827586207" as="targetPoint" />
          </mxGeometry>
        </mxCell>
        <mxCell id="ep7vOEKuy8bBKtfqTCqH-229" value="3.2: Thêm dữ liệu dịch vụ()" style="edgeLabel;html=1;align=center;verticalAlign=middle;resizable=0;points=[];" vertex="1" connectable="0" parent="ep7vOEKuy8bBKtfqTCqH-228">
          <mxGeometry x="-0.3592" y="3" relative="1" as="geometry">
            <mxPoint x="38" y="-7" as="offset" />
          </mxGeometry>
        </mxCell>
        <mxCell id="ep7vOEKuy8bBKtfqTCqH-230" value="" style="html=1;points=[];perimeter=orthogonalPerimeter;outlineConnect=0;targetShapes=umlLifeline;portConstraint=eastwest;newEdgeStyle={&quot;edgeStyle&quot;:&quot;elbowEdgeStyle&quot;,&quot;elbow&quot;:&quot;vertical&quot;,&quot;curved&quot;:0,&quot;rounded&quot;:0};" vertex="1" parent="1">
          <mxGeometry x="1305" y="1032.5" width="10" height="65" as="geometry" />
        </mxCell>
        <mxCell id="ep7vOEKuy8bBKtfqTCqH-231" value="" style="html=1;points=[];perimeter=orthogonalPerimeter;outlineConnect=0;targetShapes=umlLifeline;portConstraint=eastwest;newEdgeStyle={&quot;edgeStyle&quot;:&quot;elbowEdgeStyle&quot;,&quot;elbow&quot;:&quot;vertical&quot;,&quot;curved&quot;:0,&quot;rounded&quot;:0};" vertex="1" parent="1">
          <mxGeometry x="1095" y="1022.5" width="10" height="75" as="geometry" />
        </mxCell>
        <mxCell id="ep7vOEKuy8bBKtfqTCqH-232" value="" style="html=1;points=[];perimeter=orthogonalPerimeter;outlineConnect=0;targetShapes=umlLifeline;portConstraint=eastwest;newEdgeStyle={&quot;edgeStyle&quot;:&quot;elbowEdgeStyle&quot;,&quot;elbow&quot;:&quot;vertical&quot;,&quot;curved&quot;:0,&quot;rounded&quot;:0};" vertex="1" parent="1">
          <mxGeometry x="1525" y="1042.5" width="10" height="55" as="geometry" />
        </mxCell>
        <mxCell id="ep7vOEKuy8bBKtfqTCqH-233" value="" style="html=1;points=[];perimeter=orthogonalPerimeter;outlineConnect=0;targetShapes=umlLifeline;portConstraint=eastwest;newEdgeStyle={&quot;edgeStyle&quot;:&quot;elbowEdgeStyle&quot;,&quot;elbow&quot;:&quot;vertical&quot;,&quot;curved&quot;:0,&quot;rounded&quot;:0};" vertex="1" parent="1">
          <mxGeometry x="915" y="1012.5" width="10" height="85" as="geometry" />
        </mxCell>
        <mxCell id="ep7vOEKuy8bBKtfqTCqH-234" value="[Thêm dịch vụ]" style="html=1;verticalAlign=bottom;startArrow=oval;endArrow=block;startSize=8;edgeStyle=elbowEdgeStyle;elbow=vertical;curved=0;rounded=0;" edge="1" parent="1">
          <mxGeometry x="-0.4924" y="10" relative="1" as="geometry">
            <mxPoint x="855" y="1012.52" as="sourcePoint" />
            <mxPoint x="915" y="1012.52" as="targetPoint" />
            <mxPoint as="offset" />
          </mxGeometry>
        </mxCell>
        <mxCell id="ep7vOEKuy8bBKtfqTCqH-235" value="3: Thêm dịch vụ()" style="html=1;verticalAlign=bottom;endArrow=block;edgeStyle=elbowEdgeStyle;elbow=vertical;curved=0;rounded=0;" edge="1" parent="1" source="ep7vOEKuy8bBKtfqTCqH-233">
          <mxGeometry x="0.0014" relative="1" as="geometry">
            <mxPoint x="930" y="1022.5" as="sourcePoint" />
            <Array as="points">
              <mxPoint x="1015" y="1022.5" />
            </Array>
            <mxPoint x="1100" y="1022.5" as="targetPoint" />
            <mxPoint as="offset" />
          </mxGeometry>
        </mxCell>
        <mxCell id="ep7vOEKuy8bBKtfqTCqH-236" style="edgeStyle=elbowEdgeStyle;rounded=0;orthogonalLoop=1;jettySize=auto;html=1;elbow=vertical;curved=0;" edge="1" parent="1">
          <mxGeometry relative="1" as="geometry">
            <mxPoint x="855" y="1340" as="sourcePoint" />
            <mxPoint x="1055" y="1340" as="targetPoint" />
            <Array as="points">
              <mxPoint x="930" y="1340" />
              <mxPoint x="970" y="1330" />
            </Array>
          </mxGeometry>
        </mxCell>
        <mxCell id="ep7vOEKuy8bBKtfqTCqH-237" value="1.1: Xử lý tin nhắn()" style="edgeLabel;html=1;align=center;verticalAlign=middle;resizable=0;points=[];" vertex="1" connectable="0" parent="ep7vOEKuy8bBKtfqTCqH-236">
          <mxGeometry x="0.0893" y="-1" relative="1" as="geometry">
            <mxPoint x="-4" y="-11" as="offset" />
          </mxGeometry>
        </mxCell>
        <mxCell id="ep7vOEKuy8bBKtfqTCqH-238" style="edgeStyle=elbowEdgeStyle;rounded=0;orthogonalLoop=1;jettySize=auto;html=1;elbow=vertical;curved=0;" edge="1" parent="1">
          <mxGeometry relative="1" as="geometry">
            <mxPoint x="1065" y="1350.0044827586207" as="sourcePoint" />
            <mxPoint x="1275" y="1350.0044827586207" as="targetPoint" />
          </mxGeometry>
        </mxCell>
        <mxCell id="ep7vOEKuy8bBKtfqTCqH-239" value="1.2: Thêm dữ liệu tin nhắn()" style="edgeLabel;html=1;align=center;verticalAlign=middle;resizable=0;points=[];" vertex="1" connectable="0" parent="ep7vOEKuy8bBKtfqTCqH-238">
          <mxGeometry x="-0.3592" y="3" relative="1" as="geometry">
            <mxPoint x="38" y="-7" as="offset" />
          </mxGeometry>
        </mxCell>
        <mxCell id="ep7vOEKuy8bBKtfqTCqH-240" value="&lt;font style=&quot;font-size: 10px;&quot;&gt;sd completeInvoice&lt;/font&gt;" style="shape=umlFrame;whiteSpace=wrap;html=1;pointerEvents=0;width=140;height=20;" vertex="1" parent="1">
          <mxGeometry x="450" y="1220" width="1160" height="380" as="geometry" />
        </mxCell>
        <mxCell id="ep7vOEKuy8bBKtfqTCqH-241" value="&lt;font style=&quot;font-size: 10px;&quot;&gt;Controller&lt;/font&gt;" style="shape=umlLifeline;perimeter=lifelinePerimeter;whiteSpace=wrap;html=1;container=1;dropTarget=0;collapsible=0;recursiveResize=0;outlineConnect=0;portConstraint=eastwest;newEdgeStyle={&quot;curved&quot;:0,&quot;rounded&quot;:0};participant=umlControl;" vertex="1" parent="1">
          <mxGeometry x="1040" y="1250" width="40" height="340" as="geometry" />
        </mxCell>
        <mxCell id="ep7vOEKuy8bBKtfqTCqH-242" value="" style="html=1;points=[];perimeter=orthogonalPerimeter;outlineConnect=0;targetShapes=umlLifeline;portConstraint=eastwest;newEdgeStyle={&quot;edgeStyle&quot;:&quot;elbowEdgeStyle&quot;,&quot;elbow&quot;:&quot;vertical&quot;,&quot;curved&quot;:0,&quot;rounded&quot;:0};" vertex="1" parent="ep7vOEKuy8bBKtfqTCqH-241">
          <mxGeometry x="15" y="90" width="10" height="65" as="geometry" />
        </mxCell>
        <mxCell id="ep7vOEKuy8bBKtfqTCqH-243" value="&lt;font style=&quot;font-size: 10px;&quot;&gt;monitor&lt;/font&gt;" style="shape=umlLifeline;perimeter=lifelinePerimeter;whiteSpace=wrap;html=1;container=1;dropTarget=0;collapsible=0;recursiveResize=0;outlineConnect=0;portConstraint=eastwest;newEdgeStyle={&quot;curved&quot;:0,&quot;rounded&quot;:0};participant=umlBoundary;align=right;" vertex="1" parent="1">
          <mxGeometry x="825" y="1250" width="50" height="340" as="geometry" />
        </mxCell>
        <mxCell id="ep7vOEKuy8bBKtfqTCqH-244" value="" style="html=1;points=[];perimeter=orthogonalPerimeter;outlineConnect=0;targetShapes=umlLifeline;portConstraint=eastwest;newEdgeStyle={&quot;edgeStyle&quot;:&quot;elbowEdgeStyle&quot;,&quot;elbow&quot;:&quot;vertical&quot;,&quot;curved&quot;:0,&quot;rounded&quot;:0};" vertex="1" parent="ep7vOEKuy8bBKtfqTCqH-243">
          <mxGeometry x="20" y="80" width="10" height="75" as="geometry" />
        </mxCell>
        <mxCell id="ep7vOEKuy8bBKtfqTCqH-245" value="&lt;font style=&quot;font-size: 10px;&quot;&gt;Database&lt;/font&gt;" style="shape=umlLifeline;perimeter=lifelinePerimeter;whiteSpace=wrap;html=1;container=1;dropTarget=0;collapsible=0;recursiveResize=0;outlineConnect=0;portConstraint=eastwest;newEdgeStyle={&quot;curved&quot;:0,&quot;rounded&quot;:0};participant=umlEntity;" vertex="1" parent="1">
          <mxGeometry x="1260" y="1250" width="40" height="340" as="geometry" />
        </mxCell>
        <mxCell id="ep7vOEKuy8bBKtfqTCqH-246" value="" style="html=1;points=[];perimeter=orthogonalPerimeter;outlineConnect=0;targetShapes=umlLifeline;portConstraint=eastwest;newEdgeStyle={&quot;edgeStyle&quot;:&quot;elbowEdgeStyle&quot;,&quot;elbow&quot;:&quot;vertical&quot;,&quot;curved&quot;:0,&quot;rounded&quot;:0};" vertex="1" parent="ep7vOEKuy8bBKtfqTCqH-245">
          <mxGeometry x="15" y="100" width="10" height="55" as="geometry" />
        </mxCell>
        <mxCell id="ep7vOEKuy8bBKtfqTCqH-247" value="&lt;span style=&quot;color: rgba(0, 0, 0, 0); font-family: monospace; font-size: 0px; text-align: start; text-wrap: nowrap;&quot;&gt;%3CmxGraphModel%3E%3Croot%3E%3CmxCell%20id%3D%220%22%2F%3E%3CmxCell%20id%3D%221%22%20parent%3D%220%22%2F%3E%3CmxCell%20id%3D%222%22%20value%3D%22%22%20style%3D%22shape%3DumlLifeline%3Bperimeter%3DlifelinePerimeter%3BwhiteSpace%3Dwrap%3Bhtml%3D1%3Bcontainer%3D1%3BdropTarget%3D0%3Bcollapsible%3D0%3BrecursiveResize%3D0%3BoutlineConnect%3D0%3BportConstraint%3Deastwest%3BnewEdgeStyle%3D%7B%26quot%3Bcurved%26quot%3B%3A0%2C%26quot%3Brounded%26quot%3B%3A0%7D%3Bparticipant%3DumlActor%3B%22%20vertex%3D%221%22%20parent%3D%221%22%3E%3CmxGeometry%20x%3D%22-570%22%20y%3D%2240%22%20width%3D%2220%22%20height%3D%22520%22%20as%3D%22geometry%22%2F%3E%3C%2FmxCell%3E%3C%2Froot%3E%3C%2FmxGraphModel%3E&lt;/span&gt;" style="shape=umlLifeline;perimeter=lifelinePerimeter;whiteSpace=wrap;html=1;container=1;dropTarget=0;collapsible=0;recursiveResize=0;outlineConnect=0;portConstraint=eastwest;newEdgeStyle={&quot;curved&quot;:0,&quot;rounded&quot;:0};participant=umlActor;" vertex="1" parent="1">
          <mxGeometry x="660" y="1250" width="20" height="340" as="geometry" />
        </mxCell>
        <mxCell id="ep7vOEKuy8bBKtfqTCqH-248" value="" style="html=1;points=[];perimeter=orthogonalPerimeter;outlineConnect=0;targetShapes=umlLifeline;portConstraint=eastwest;newEdgeStyle={&quot;edgeStyle&quot;:&quot;elbowEdgeStyle&quot;,&quot;elbow&quot;:&quot;vertical&quot;,&quot;curved&quot;:0,&quot;rounded&quot;:0};" vertex="1" parent="ep7vOEKuy8bBKtfqTCqH-247">
          <mxGeometry x="5" y="70" width="10" height="85" as="geometry" />
        </mxCell>
        <mxCell id="ep7vOEKuy8bBKtfqTCqH-249" value="[Nhắn tin]" style="html=1;verticalAlign=bottom;startArrow=oval;endArrow=block;startSize=8;edgeStyle=elbowEdgeStyle;elbow=vertical;curved=0;rounded=0;" edge="1" parent="1">
          <mxGeometry x="-0.4969" y="7" relative="1" as="geometry">
            <mxPoint x="605" y="1320.02" as="sourcePoint" />
            <mxPoint x="665" y="1320.02" as="targetPoint" />
            <mxPoint as="offset" />
          </mxGeometry>
        </mxCell>
        <mxCell id="ep7vOEKuy8bBKtfqTCqH-250" value="1: Soạn tin văn bản()" style="html=1;verticalAlign=bottom;endArrow=block;edgeStyle=elbowEdgeStyle;elbow=vertical;curved=0;rounded=0;" edge="1" parent="1" source="ep7vOEKuy8bBKtfqTCqH-248">
          <mxGeometry x="0.0014" relative="1" as="geometry">
            <mxPoint x="680" y="1330" as="sourcePoint" />
            <Array as="points">
              <mxPoint x="765" y="1330" />
            </Array>
            <mxPoint x="850" y="1330" as="targetPoint" />
            <mxPoint as="offset" />
          </mxGeometry>
        </mxCell>
        <mxCell id="ep7vOEKuy8bBKtfqTCqH-265" value="loop" style="shape=umlFrame;whiteSpace=wrap;html=1;pointerEvents=0;width=50;height=20;" vertex="1" parent="1">
          <mxGeometry x="670" y="970" width="920" height="140" as="geometry" />
        </mxCell>
        <mxCell id="ep7vOEKuy8bBKtfqTCqH-266" value="[for service in services]" style="text;html=1;align=center;verticalAlign=middle;resizable=0;points=[];autosize=1;strokeColor=none;fillColor=none;" vertex="1" parent="1">
          <mxGeometry x="670" y="1000" width="150" height="30" as="geometry" />
        </mxCell>
        <mxCell id="ep7vOEKuy8bBKtfqTCqH-267" value="alt" style="shape=umlFrame;whiteSpace=wrap;html=1;pointerEvents=0;width=60;height=20;" vertex="1" parent="1">
          <mxGeometry x="370" y="360" width="1250" height="240" as="geometry" />
        </mxCell>
        <mxCell id="ep7vOEKuy8bBKtfqTCqH-268" value="[wallet.amount &amp;gt; invoice.amount]" style="text;html=1;align=center;verticalAlign=middle;resizable=0;points=[];autosize=1;strokeColor=none;fillColor=none;" vertex="1" parent="1">
          <mxGeometry x="370" y="400" width="200" height="30" as="geometry" />
        </mxCell>
        <mxCell id="ep7vOEKuy8bBKtfqTCqH-269" value="" style="endArrow=none;dashed=1;html=1;dashPattern=8 8;strokeWidth=2;rounded=0;entryX=1.005;entryY=0.704;entryDx=0;entryDy=0;entryPerimeter=0;exitX=0.004;exitY=0.726;exitDx=0;exitDy=0;exitPerimeter=0;" edge="1" parent="1" source="ep7vOEKuy8bBKtfqTCqH-267" target="ep7vOEKuy8bBKtfqTCqH-267">
          <mxGeometry width="50" height="50" relative="1" as="geometry">
            <mxPoint x="820" y="535" as="sourcePoint" />
            <mxPoint x="870" y="485" as="targetPoint" />
          </mxGeometry>
        </mxCell>
        <mxCell id="ep7vOEKuy8bBKtfqTCqH-270" value="[else]" style="text;html=1;align=center;verticalAlign=middle;resizable=0;points=[];autosize=1;strokeColor=none;fillColor=none;" vertex="1" parent="1">
          <mxGeometry x="370" y="535" width="50" height="30" as="geometry" />
        </mxCell>
        <mxCell id="ep7vOEKuy8bBKtfqTCqH-275" value="&lt;span style=&quot;color: rgba(0, 0, 0, 0); font-family: monospace; font-size: 0px; text-align: start; text-wrap: nowrap;&quot;&gt;%3CmxGraphModel%3E%3Croot%3E%3CmxCell%20id%3D%220%22%2F%3E%3CmxCell%20id%3D%221%22%20parent%3D%220%22%2F%3E%3CmxCell%20id%3D%222%22%20value%3D%22%22%20style%3D%22shape%3DumlLifeline%3Bperimeter%3DlifelinePerimeter%3BwhiteSpace%3Dwrap%3Bhtml%3D1%3Bcontainer%3D1%3BdropTarget%3D0%3Bcollapsible%3D0%3BrecursiveResize%3D0%3BoutlineConnect%3D0%3BportConstraint%3Deastwest%3BnewEdgeStyle%3D%7B%26quot%3Bcurved%26quot%3B%3A0%2C%26quot%3Brounded%26quot%3B%3A0%7D%3Bparticipant%3DumlActor%3B%22%20vertex%3D%221%22%20parent%3D%221%22%3E%3CmxGeometry%20x%3D%22-570%22%20y%3D%2240%22%20width%3D%2220%22%20height%3D%22520%22%20as%3D%22geometry%22%2F%3E%3C%2FmxCell%3E%3C%2Froot%3E%3C%2FmxGraphModel%3E&lt;/span&gt;" style="shape=umlLifeline;perimeter=lifelinePerimeter;whiteSpace=wrap;html=1;container=1;dropTarget=0;collapsible=0;recursiveResize=0;outlineConnect=0;portConstraint=eastwest;newEdgeStyle={&quot;curved&quot;:0,&quot;rounded&quot;:0};participant=umlActor;" vertex="1" parent="1">
          <mxGeometry x="510" y="1290" width="20" height="300" as="geometry" />
        </mxCell>
        <mxCell id="ep7vOEKuy8bBKtfqTCqH-276" value="" style="html=1;points=[];perimeter=orthogonalPerimeter;outlineConnect=0;targetShapes=umlLifeline;portConstraint=eastwest;newEdgeStyle={&quot;edgeStyle&quot;:&quot;elbowEdgeStyle&quot;,&quot;elbow&quot;:&quot;vertical&quot;,&quot;curved&quot;:0,&quot;rounded&quot;:0};" vertex="1" parent="ep7vOEKuy8bBKtfqTCqH-275">
          <mxGeometry x="5" y="120" width="10" height="170" as="geometry" />
        </mxCell>
        <mxCell id="ep7vOEKuy8bBKtfqTCqH-282" style="edgeStyle=orthogonalEdgeStyle;rounded=0;orthogonalLoop=1;jettySize=auto;html=1;curved=0;dashed=1;dashPattern=8 8;" edge="1" parent="1" source="ep7vOEKuy8bBKtfqTCqH-278" target="ep7vOEKuy8bBKtfqTCqH-276">
          <mxGeometry relative="1" as="geometry">
            <mxPoint x="1470.06" y="1470" as="sourcePoint" />
            <mxPoint x="519.9488888888886" y="1470" as="targetPoint" />
          </mxGeometry>
        </mxCell>
        <mxCell id="ep7vOEKuy8bBKtfqTCqH-283" value="Tin nhắn(realtime)" style="edgeLabel;html=1;align=center;verticalAlign=middle;resizable=0;points=[];" vertex="1" connectable="0" parent="ep7vOEKuy8bBKtfqTCqH-282">
          <mxGeometry x="0.1921" relative="1" as="geometry">
            <mxPoint as="offset" />
          </mxGeometry>
        </mxCell>
        <mxCell id="ep7vOEKuy8bBKtfqTCqH-278" value=":Kafka" style="shape=umlLifeline;perimeter=lifelinePerimeter;whiteSpace=wrap;html=1;container=1;dropTarget=0;collapsible=0;recursiveResize=0;outlineConnect=0;portConstraint=eastwest;newEdgeStyle={&quot;curved&quot;:0,&quot;rounded&quot;:0};" vertex="1" parent="1">
          <mxGeometry x="1420" y="1250" width="100" height="340" as="geometry" />
        </mxCell>
        <mxCell id="ep7vOEKuy8bBKtfqTCqH-279" value="" style="html=1;points=[];perimeter=orthogonalPerimeter;outlineConnect=0;targetShapes=umlLifeline;portConstraint=eastwest;newEdgeStyle={&quot;edgeStyle&quot;:&quot;elbowEdgeStyle&quot;,&quot;elbow&quot;:&quot;vertical&quot;,&quot;curved&quot;:0,&quot;rounded&quot;:0};" vertex="1" parent="ep7vOEKuy8bBKtfqTCqH-278">
          <mxGeometry x="45" y="110" width="10" height="120" as="geometry" />
        </mxCell>
        <mxCell id="ep7vOEKuy8bBKtfqTCqH-280" style="edgeStyle=elbowEdgeStyle;rounded=0;orthogonalLoop=1;jettySize=auto;html=1;elbow=vertical;curved=0;" edge="1" parent="1" source="ep7vOEKuy8bBKtfqTCqH-246">
          <mxGeometry relative="1" as="geometry">
            <mxPoint x="1280" y="1360.0033333333336" as="sourcePoint" />
            <mxPoint x="1464.5" y="1360.0033333333336" as="targetPoint" />
          </mxGeometry>
        </mxCell>
        <mxCell id="ep7vOEKuy8bBKtfqTCqH-284" value="Quản lý trọ" style="text;html=1;align=center;verticalAlign=middle;resizable=0;points=[];autosize=1;strokeColor=none;fillColor=none;" vertex="1" parent="1">
          <mxGeometry x="-600" y="10" width="80" height="30" as="geometry" />
        </mxCell>
        <mxCell id="ep7vOEKuy8bBKtfqTCqH-285" value="Quản lý trọ" style="text;html=1;align=center;verticalAlign=middle;resizable=0;points=[];autosize=1;strokeColor=none;fillColor=none;" vertex="1" parent="1">
          <mxGeometry x="-600" y="620" width="80" height="30" as="geometry" />
        </mxCell>
        <mxCell id="ep7vOEKuy8bBKtfqTCqH-286" value="Cư dân" style="text;html=1;align=center;verticalAlign=middle;resizable=0;points=[];autosize=1;strokeColor=none;fillColor=none;" vertex="1" parent="1">
          <mxGeometry x="620" y="20" width="60" height="30" as="geometry" />
        </mxCell>
        <mxCell id="ep7vOEKuy8bBKtfqTCqH-287" value="Người dùng" style="text;html=1;align=center;verticalAlign=middle;resizable=0;points=[];autosize=1;strokeColor=none;fillColor=none;" vertex="1" parent="1">
          <mxGeometry x="475" y="1250" width="90" height="30" as="geometry" />
        </mxCell>
        <mxCell id="ep7vOEKuy8bBKtfqTCqH-288" value="Người dùng" style="text;html=1;align=center;verticalAlign=middle;resizable=0;points=[];autosize=1;strokeColor=none;fillColor=none;" vertex="1" parent="1">
          <mxGeometry x="625" y="1220" width="90" height="30" as="geometry" />
        </mxCell>
        <mxCell id="ep7vOEKuy8bBKtfqTCqH-289" value="Quản lý trọ" style="text;html=1;align=center;verticalAlign=middle;resizable=0;points=[];autosize=1;strokeColor=none;fillColor=none;" vertex="1" parent="1">
          <mxGeometry x="880" y="630" width="80" height="30" as="geometry" />
        </mxCell>
      </root>
    </mxGraphModel>
  </diagram>
</mxfile>
